<svg id="Layer_1_copy" height="512" viewBox="0 0 512 512" width="512" xmlns="http://www.w3.org/2000/svg" data-name="Layer 1 copy"><circle cx="184" cy="160" fill="#0a529b" r="16"/><circle cx="376" cy="352" fill="#0a529b" r="16"/><path d="m418.948 34.381-200 200 58.104 45.619-184 200 280-200-72-56z" fill="#fcc42d"/><path d="m256 231.918 162.948-197.537-200 200 58.104 45.619-184 200 221.556-200.809z" fill="#fed430"/><g fill="#0e2f56"><path d="m160 160a24 24 0 1 0 24-24 24.027 24.027 0 0 0 -24 24zm32 0a8 8 0 1 1 -8-8 8.009 8.009 0 0 1 8 8z"/><path d="m352 352a24 24 0 1 0 24-24 24.027 24.027 0 0 0 -24 24zm32 0a8 8 0 1 1 -8-8 8.009 8.009 0 0 1 8 8z"/><path d="m423.921 28.115a8 8 0 0 0 -10.63.61l-138.731 138.732 11.313 11.313 89.573-89.57-81.188 130.576a8 8 0 0 0 1.882 10.539l63.53 49.412-208.532 148.952 131.8-143.262a8 8 0 0 0 -.947-11.709l-51.007-40.048 44-44-11.313-11.313-50.381 50.381a8 8 0 0 0 .716 11.949l51.3 40.276-178.141 193.63a8 8 0 0 0 10.535 11.927l280-200a8 8 0 0 0 .262-12.825l-66.314-51.578 114.093-183.5a8 8 0 0 0 -1.82-10.492z"/></g></svg>